<?xml version="1.0" encoding="utf-8"?>
<svg width="1750px" height="664px" viewBox="0 0 1750 664" version="1.1" xmlns:xlink="http://www.w3.org/1999/xlink" xmlns="http://www.w3.org/2000/svg">
  <defs>
    <path d="M1750 0L1750 0L1750 664L0 664L0 0L1750 0Z" id="path_1" />
    <clipPath id="clip_1">
      <use xlink:href="#path_1" clip-rule="evenodd" fill-rule="evenodd" />
    </clipPath>
  </defs>
  <g id="iMac 24&quot;" clip-path="url(#clip_1)">
    <path d="M1750 0L1750 0L1750 664L0 664L0 0L1750 0Z" id="iMac-24" fill="#FFFFFF" fill-opacity="0" stroke="none" />
    <g id="Group-2" transform="translate(16 26)">
      <g id="Group">
        <path d="M0 305.5C0 136.777 136.777 0 305.5 0C474.223 0 611 136.777 611 305.5C611 474.223 474.223 611 305.5 611C136.777 611 0 474.223 0 305.5Z" id="Oval" fill="#E33B38" fill-rule="evenodd" stroke="none" />
        <path d="M141.65 164.5L213.772 164.5L247.745 200.338L466.916 200.55C466.916 200.55 480.599 203.296 475.514 221.225C470.43 239.153 446.415 287.374 446.415 287.374C446.415 287.374 416.397 289.41 416.358 305.5C416.337 313.986 420.16 317.288 423.546 320.213C426.58 322.833 429.262 325.15 428.513 330.621C428.513 330.621 414.347 393.735 401.772 393.828C389.197 393.921 229.978 393.828 229.978 393.828C229.978 393.828 217.408 394.377 217.823 375.722C218.238 357.068 229.978 356.552 229.978 356.552L380.703 356.552C380.703 356.552 392.254 352.865 392.047 335.48C391.84 318.095 380.703 315.225 380.703 315.225L272.116 315.225C272.116 315.225 260.574 315.524 260.771 297.397C260.968 279.269 272.116 278.759 272.116 278.759L401.772 278.759C401.772 278.759 410.22 278.327 409.875 258.5C409.53 238.674 401.772 238.242 401.772 238.242L234.841 238.242L196.755 200.156L141.65 200.156C141.65 200.156 134.565 200.37 134.357 182.328C134.15 164.286 141.65 164.5 141.65 164.5ZM367.737 446.5C357.443 446.5 349.099 438.156 349.099 427.862C349.099 417.569 357.443 409.224 367.737 409.224C378.03 409.224 386.375 417.569 386.375 427.862C386.375 438.156 378.03 446.5 367.737 446.5ZM239.702 443.259C231.199 443.259 224.306 436.365 224.306 427.862C224.306 419.359 231.199 412.466 239.702 412.466C248.205 412.466 255.099 419.359 255.099 427.862C255.099 436.365 248.205 443.259 239.702 443.259Z" id="Vector-Union" fill="#FFFFFF" fill-rule="evenodd" stroke="none" />
      </g>
      <g id="Bosco" transform="translate(711 72)">
        <g id="Bosco" fill="#E33B38">
          <path d="M180.154 218.716Q218.32 227.615 233.745 240.271Q255.894 258.267 255.894 286.941Q255.894 317.197 231.57 336.973Q201.709 360.901 144.756 360.901L8.50342 360.901L8.50342 353.584Q27.0923 353.584 33.717 350.123Q40.3418 346.663 43.0115 341.125Q45.6811 335.588 45.6812 313.835L45.6812 139.812Q45.6811 118.059 43.0115 112.423Q40.3418 106.787 33.6182 103.425Q26.8945 100.064 8.50342 100.063L8.50342 92.7466L137.043 92.7466Q183.12 92.7466 202.302 100.953Q221.484 109.16 232.559 125.475Q243.633 141.79 243.633 160.181Q243.633 179.561 229.592 194.689Q215.552 209.817 180.154 218.716ZM108.171 213.376Q136.252 213.376 149.601 207.048Q162.949 200.72 170.068 189.25Q177.188 177.781 177.188 159.983Q177.188 142.185 170.167 130.814Q163.147 119.443 150.095 113.511Q137.043 107.578 108.171 107.776L108.171 213.376ZM108.171 228.801L108.171 314.824L107.974 324.712Q107.974 335.391 113.412 340.829Q118.85 346.267 129.529 346.267Q145.349 346.267 158.698 339.247Q172.046 332.227 179.165 318.878Q186.284 305.53 186.284 289.116Q186.284 270.33 177.583 255.399Q168.882 240.469 153.655 234.536Q138.428 228.604 108.171 228.801ZM370.986 170.464Q395.112 170.464 415.876 182.922Q436.641 195.381 447.418 218.32Q458.196 241.26 458.196 268.55Q458.196 307.903 438.223 334.402Q414.097 366.438 371.58 366.438Q329.854 366.438 307.31 337.17Q284.766 307.903 284.766 269.341Q284.766 229.592 307.804 200.028Q330.842 170.464 370.986 170.464ZM371.777 184.504Q361.692 184.504 354.474 192.118Q347.256 199.731 344.982 222.177Q342.708 244.622 342.708 284.568Q342.708 305.728 345.476 324.119Q347.651 338.159 354.771 345.476Q361.89 352.793 370.986 352.793Q379.885 352.793 385.818 347.849Q393.53 341.125 396.101 329.063Q400.056 310.276 400.056 253.125Q400.056 219.507 396.299 206.949Q392.542 194.392 385.225 188.657Q380.083 184.504 371.777 184.504ZM603.149 170.859L606.116 233.943L599.392 233.943Q587.329 205.862 574.376 195.579Q561.423 185.295 548.569 185.295Q540.461 185.295 534.727 190.734Q528.992 196.172 528.992 203.291Q528.992 208.63 532.947 213.574Q539.275 221.682 568.345 241.359Q597.415 261.035 606.61 274.779Q615.806 288.523 615.806 305.53Q615.806 320.955 608.093 335.786Q600.381 350.618 586.34 358.528Q572.3 366.438 555.293 366.438Q542.043 366.438 519.895 358.132Q513.962 355.957 511.787 355.957Q505.261 355.957 500.911 365.845L494.385 365.845L491.221 299.399L497.944 299.399Q506.843 325.503 522.367 338.555Q537.891 351.606 551.733 351.606Q561.226 351.606 567.257 345.773Q573.289 339.939 573.289 331.633Q573.289 322.141 567.356 315.22Q561.423 308.298 540.857 294.258Q510.601 273.296 501.702 262.222Q488.65 246.006 488.65 226.428Q488.65 205.071 503.383 187.767Q518.115 170.464 545.999 170.464Q561.028 170.464 575.068 177.781Q580.408 180.747 583.77 180.747Q587.329 180.747 589.504 179.264Q591.68 177.781 596.426 170.859L603.149 170.859ZM794.773 313.242L800.903 317.988Q787.852 342.51 768.373 354.474Q748.894 366.438 726.943 366.438Q689.963 366.438 667.815 338.555Q645.667 310.671 645.667 271.516Q645.667 233.745 665.837 205.071Q690.161 170.464 732.876 170.464Q761.55 170.464 778.458 184.9Q795.366 199.336 795.366 217.134Q795.366 228.406 788.544 235.129Q781.721 241.853 770.647 241.853Q758.979 241.853 751.366 234.141Q743.752 226.428 741.973 206.653Q740.786 194.194 736.238 189.25Q731.689 184.307 725.559 184.307Q716.067 184.307 709.343 194.392Q699.06 209.619 699.06 241.062Q699.06 267.166 707.366 290.995Q715.671 314.824 730.107 326.492Q740.984 334.995 755.815 334.995Q765.505 334.995 774.207 330.447Q782.908 325.898 794.773 313.242ZM910.854 170.464Q934.98 170.464 955.745 182.922Q976.509 195.381 987.286 218.32Q998.064 241.26 998.064 268.55Q998.064 307.903 978.091 334.402Q953.965 366.438 911.448 366.438Q869.722 366.438 847.178 337.17Q824.634 307.903 824.634 269.341Q824.634 229.592 847.672 200.028Q870.71 170.464 910.854 170.464ZM911.646 184.504Q901.56 184.504 894.342 192.118Q887.124 199.731 884.85 222.177Q882.576 244.622 882.576 284.568Q882.576 305.728 885.344 324.119Q887.52 338.159 894.639 345.476Q901.758 352.793 910.854 352.793Q919.753 352.793 925.686 347.849Q933.398 341.125 935.969 329.063Q939.924 310.276 939.924 253.125Q939.924 219.507 936.167 206.949Q932.41 194.392 925.093 188.657Q919.951 184.504 911.646 184.504Z" />
        </g>
      </g>
    </g>
  </g>
</svg>